<svg width="398" height="51" viewBox="0 0 398 51" fill="none" xmlns="http://www.w3.org/2000/svg">
<g clip-path="url(#clip0_311_13064)">
<path d="M31.9 12.33C26.72 10.03 22.53 8.88001 19.36 8.88001C17.16 8.88001 15.42 9.29001 14.15 10.09C12.88 10.9 12.24 11.99 12.24 13.36C12.24 14.39 12.58 15.27 13.27 16C13.95 16.73 15.15 17.56 16.86 18.49C24.34 22.5 29.19 25.61 31.39 27.81C32.42 28.84 33.22 30.11 33.81 31.63C34.4 33.14 34.69 34.76 34.69 36.47C34.69 40.83 33.2 44.2 30.21 46.59C27.23 48.99 23.05 50.19 17.67 50.19C15.91 50.19 14.3 50.07 12.83 49.82C11.36 49.57 9.93999 49.22 8.57999 48.76C7.20999 48.29 5.83999 47.75 4.46999 47.11C3.09999 46.48 1.62999 45.79 0.0699878 45.06L3.95999 36.55C6.15999 37.72 8.38999 38.81 10.64 39.82C12.89 40.82 15.29 41.32 17.83 41.32C19.98 41.32 21.69 40.88 22.97 40C24.24 39.12 24.88 37.94 24.88 36.48C24.88 35.46 24.56 34.55 23.93 33.77C23.29 32.99 22.19 32.16 20.63 31.28L13.15 27.03C11 25.81 9.19999 24.67 7.75999 23.62C6.31999 22.57 5.16999 21.52 4.30999 20.46C3.44999 19.41 2.83999 18.33 2.47999 17.23C2.10999 16.13 1.92999 14.92 1.92999 13.6C1.92999 11.11 2.44999 9.00001 3.50999 7.29001C4.55999 5.58001 5.92999 4.19001 7.61999 3.11001C9.30999 2.03001 11.2 1.25001 13.3 0.760009C15.4 0.270009 17.51 0.0300093 19.61 0.0300093C21.17 0.0300093 22.63 0.120009 23.98 0.290009C25.32 0.460009 26.63 0.720009 27.9 1.06001C29.17 1.40001 30.43 1.83001 31.68 2.34001C32.93 2.85001 34.23 3.43001 35.6 4.06001L31.93 12.35L31.9 12.33Z" fill="#F8951D"/>
<path d="M44.3 49.23V0.810009H73.79V8.66001H53.54V20.62H70.12V28.47H53.54V41.38H74.74V49.23H44.29H44.3Z" fill="#F8951D"/>
<path d="M120.93 48.05C120.12 48.24 119.45 48.42 118.91 48.56C117.64 48.85 116.48 49.1 115.43 49.29C114.38 49.48 113.38 49.66 112.42 49.8C111.47 49.95 110.54 50.05 109.63 50.09C108.73 50.14 107.76 50.16 106.73 50.16C102.72 50.16 99.04 49.55 95.69 48.33C92.34 47.11 89.47 45.38 87.07 43.16C84.67 40.94 82.81 38.28 81.49 35.2C80.17 32.12 79.51 28.69 79.51 24.93C79.51 21.17 80.18 17.86 81.53 14.73C82.87 11.6 84.87 8.84001 87.51 6.44001C90.01 4.14001 92.73 2.49001 95.69 1.49001C98.65 0.490009 102.23 -0.00999069 106.44 -0.00999069C108.2 -0.00999069 109.94 0.0800093 111.65 0.250009C113.36 0.420009 115 0.700009 116.57 1.09001C117.16 1.24001 117.71 1.38001 118.22 1.53001C118.73 1.68001 119.26 1.85001 119.8 2.04001C120.34 2.24001 120.92 2.47001 121.56 2.74001C122.2 3.01001 122.93 3.32001 123.76 3.66001L121.56 11.36C120.68 11.02 119.91 10.74 119.25 10.52C118.59 10.3 118.04 10.12 117.6 9.97001C114.13 8.80001 110.8 8.21001 107.62 8.21001C104.88 8.21001 102.39 8.61001 100.14 9.42001C97.89 10.23 95.96 11.34 94.34 12.76C92.73 14.18 91.47 15.89 90.56 17.89C89.65 19.9 89.2 22.1 89.2 24.49C89.2 26.88 89.69 29.29 90.67 31.42C91.65 33.55 92.99 35.4 94.71 36.96C96.42 38.52 98.44 39.75 100.76 40.63C103.08 41.51 105.59 41.95 108.28 41.95C109.36 41.95 110.32 41.88 111.18 41.73C112.04 41.58 113.17 41.32 114.59 40.92V27.57H123.84V47.38C122.71 47.63 121.75 47.85 120.94 48.04L120.93 48.05Z" fill="#F8951D"/>
<path d="M174.85 36.09C174.63 37.76 174.26 39.22 173.75 40.49C173.24 41.76 172.55 42.89 171.69 43.86C170.83 44.84 169.77 45.77 168.5 46.65C166.74 47.87 164.78 48.77 162.63 49.33C160.48 49.89 157.89 50.17 154.85 50.17C151.81 50.17 149.18 49.9 147.07 49.37C144.97 48.83 142.99 47.92 141.13 46.65C139.86 45.77 138.81 44.84 137.98 43.86C137.15 42.88 136.48 41.76 135.96 40.49C135.45 39.22 135.08 37.75 134.86 36.09C134.64 34.43 134.53 32.49 134.53 30.3V0.810009H143.7V30.82C143.7 38.01 147.51 41.61 155.15 41.61C158.67 41.61 161.35 40.69 163.18 38.86C165.01 37.02 165.93 34.35 165.93 30.82V0.810009H175.17V30.3C175.17 32.5 175.06 34.43 174.84 36.09H174.85Z" fill="#F8951D"/>
<path d="M212.08 49.23L201 29.86H196.38V49.23H187.13V0.810009H203.27C205.03 0.810009 206.57 0.870009 207.89 0.990009C209.21 1.11001 210.38 1.31001 211.41 1.58001C212.44 1.85001 213.34 2.22001 214.12 2.68001C214.9 3.15001 215.66 3.72001 216.4 4.40001C219.04 6.85001 220.36 10.34 220.36 14.89C220.36 18.61 219.48 21.64 217.72 23.99C217.28 24.58 216.83 25.09 216.36 25.53C215.9 25.97 215.37 26.36 214.78 26.7C214.19 27.04 213.53 27.35 212.8 27.62C212.07 27.89 211.18 28.17 210.16 28.46L222.19 49.22H212.07L212.08 49.23ZM210.83 15.11C210.83 12.76 210.18 11.1 208.89 10.12C207.59 9.14001 205.43 8.65001 202.39 8.65001H196.38V22H202.39C205.33 22 207.47 21.46 208.81 20.39C210.16 19.31 210.83 17.55 210.83 15.11Z" fill="#F8951D"/>
<path d="M346.94 40.78V50.87C374.65 50.87 397.11 28.4 397.12 0.69001H387.03C387.03 22.83 369.08 40.78 346.94 40.78Z" fill="#F8951D"/>
<path d="M346.94 21.57V31.13C363.75 31.13 377.38 17.5 377.38 0.69001H367.82C367.82 12.22 358.47 21.57 346.94 21.57Z" fill="#F8951D"/>
<path d="M346.94 11.48C352.9 11.48 357.73 6.65002 357.73 0.690022H346.94V11.48Z" fill="white"/>
<path d="M334.52 7.11001H322.34V50.43H315.02V7.11001H302.77V0.830007H334.52V7.11001Z" fill="white"/>
<path d="M257.84 36.12C257.84 38.09 257.5 39.95 256.81 41.68C256.12 43.42 255.11 44.93 253.77 46.21C252.43 47.5 250.77 48.51 248.78 49.25C246.8 49.99 244.49 50.35 241.87 50.35C240.6 50.35 239.33 50.27 238.07 50.11C236.81 49.95 235.61 49.71 234.47 49.4C233.33 49.09 232.28 48.73 231.3 48.31C230.33 47.9 229.48 47.45 228.75 46.98V39.48C229.55 40.06 230.49 40.62 231.58 41.19C232.67 41.75 233.81 42.25 235.01 42.69C236.21 43.13 237.4 43.48 238.59 43.76C239.77 44.03 240.84 44.17 241.79 44.17C243.24 44.17 244.51 43.99 245.59 43.62C246.68 43.26 247.59 42.74 248.33 42.07C249.06 41.39 249.61 40.59 249.98 39.65C250.34 38.71 250.52 37.68 250.52 36.56C250.52 35.29 250.29 34.21 249.83 33.34C249.37 32.47 248.71 31.71 247.86 31.05C247.01 30.4 245.99 29.81 244.79 29.29C243.59 28.77 242.25 28.22 240.78 27.64C238.75 26.84 236.96 26.04 235.38 25.22C233.81 24.41 232.48 23.49 231.41 22.45C230.33 21.41 229.52 20.21 228.96 18.85C228.4 17.49 228.11 15.87 228.11 14C228.11 11.95 228.52 10.1 229.35 8.44001C230.17 6.78001 231.3 5.37001 232.72 4.21001C234.14 3.05001 235.81 2.15001 237.72 1.51001C239.63 0.870007 241.67 0.550007 243.85 0.550007C246.17 0.550007 248.27 0.760007 250.14 1.19001C252.02 1.61001 253.73 2.15001 255.27 2.80001V9.55001C254.55 9.20001 253.71 8.86001 252.76 8.54001C251.81 8.22001 250.81 7.92001 249.76 7.66001C248.71 7.40001 247.66 7.19001 246.61 7.02001C245.56 6.86001 244.56 6.78001 243.61 6.78001C242.28 6.78001 241.11 6.95001 240.09 7.29001C239.06 7.63001 238.2 8.10001 237.48 8.70001C236.77 9.30001 236.23 10.02 235.87 10.85C235.5 11.69 235.33 12.6 235.33 13.6C235.33 14.72 235.57 15.69 236.04 16.5C236.51 17.31 237.19 18.04 238.06 18.67C238.93 19.3 239.99 19.89 241.22 20.43C242.46 20.97 243.84 21.54 245.36 22.13C247.31 22.9 249.05 23.71 250.59 24.55C252.13 25.39 253.42 26.35 254.49 27.44C255.55 28.53 256.37 29.77 256.95 31.19C257.52 32.6 257.81 34.24 257.81 36.12H257.84Z" fill="white"/>
<path d="M305.6 49.87L286.56 1.38001H279.45L260.64 49.87H277.32V43.09L270.94 43.08L271.9 40.37L282.82 9.44001L295.21 43.11H288.92V49.89L305.6 49.87Z" fill="white"/>
</g>
<defs>
<clipPath id="clip0_311_13064">
<rect width="397.06" height="50.88" fill="white" transform="translate(0.0599976)"/>
</clipPath>
</defs>
</svg>
