<svg width="398" height="51" viewBox="0 0 398 51" fill="none" xmlns="http://www.w3.org/2000/svg">
<g clip-path="url(#clip0_311_13060)">
<path d="M31.84 12.33C26.66 10.03 22.47 8.88001 19.3 8.88001C17.1 8.88001 15.36 9.29001 14.09 10.09C12.82 10.9 12.18 11.99 12.18 13.36C12.18 14.39 12.52 15.27 13.21 16C13.89 16.73 15.09 17.56 16.8 18.49C24.28 22.5 29.13 25.61 31.33 27.81C32.36 28.84 33.16 30.11 33.75 31.63C34.34 33.14 34.63 34.76 34.63 36.47C34.63 40.83 33.14 44.2 30.15 46.59C27.17 48.99 22.99 50.19 17.61 50.19C15.85 50.19 14.24 50.07 12.77 49.82C11.3 49.57 9.87998 49.22 8.51998 48.76C7.14998 48.29 5.77998 47.75 4.40998 47.11C3.03998 46.48 1.56998 45.79 0.00997925 45.06L3.89998 36.55C6.09998 37.72 8.32998 38.81 10.58 39.82C12.83 40.82 15.23 41.32 17.77 41.32C19.92 41.32 21.63 40.88 22.91 40C24.18 39.12 24.82 37.94 24.82 36.48C24.82 35.46 24.5 34.55 23.87 33.77C23.23 32.99 22.13 32.16 20.57 31.28L13.09 27.03C10.94 25.81 9.13998 24.67 7.69998 23.62C6.25998 22.57 5.10998 21.52 4.24998 20.46C3.38998 19.41 2.77998 18.33 2.41998 17.23C2.04998 16.13 1.86998 14.92 1.86998 13.6C1.86998 11.11 2.38998 9.00001 3.44998 7.29001C4.49998 5.58001 5.86998 4.19001 7.55998 3.11001C9.24998 2.03001 11.14 1.25001 13.24 0.760009C15.34 0.270009 17.45 0.0300093 19.55 0.0300093C21.11 0.0300093 22.57 0.120009 23.92 0.290009C25.26 0.460009 26.57 0.720009 27.84 1.06001C29.11 1.40001 30.37 1.83001 31.62 2.34001C32.87 2.85001 34.17 3.43001 35.54 4.06001L31.87 12.35L31.84 12.33Z" fill="#F8951D"/>
<path d="M44.24 49.23V0.810009H73.73V8.66001H53.48V20.62H70.06V28.47H53.48V41.38H74.68V49.23H44.23H44.24Z" fill="#F8951D"/>
<path d="M120.87 48.05C120.06 48.24 119.39 48.42 118.85 48.56C117.58 48.85 116.42 49.1 115.37 49.29C114.32 49.48 113.32 49.66 112.36 49.8C111.41 49.95 110.48 50.05 109.57 50.09C108.67 50.14 107.7 50.16 106.67 50.16C102.66 50.16 98.98 49.55 95.63 48.33C92.28 47.11 89.41 45.38 87.01 43.16C84.61 40.94 82.75 38.28 81.43 35.2C80.11 32.12 79.45 28.69 79.45 24.93C79.45 21.17 80.12 17.86 81.47 14.73C82.81 11.6 84.81 8.84001 87.45 6.44001C89.95 4.14001 92.67 2.49001 95.63 1.49001C98.59 0.490009 102.17 -0.00999069 106.38 -0.00999069C108.14 -0.00999069 109.88 0.0800093 111.59 0.250009C113.3 0.420009 114.94 0.700009 116.51 1.09001C117.1 1.24001 117.65 1.38001 118.16 1.53001C118.67 1.68001 119.2 1.85001 119.74 2.04001C120.28 2.24001 120.86 2.47001 121.5 2.74001C122.14 3.01001 122.87 3.32001 123.7 3.66001L121.5 11.36C120.62 11.02 119.85 10.74 119.19 10.52C118.53 10.3 117.98 10.12 117.54 9.97001C114.07 8.80001 110.74 8.21001 107.56 8.21001C104.82 8.21001 102.33 8.61001 100.08 9.42001C97.83 10.23 95.9 11.34 94.28 12.76C92.67 14.18 91.41 15.89 90.5 17.89C89.59 19.9 89.14 22.1 89.14 24.49C89.14 26.88 89.63 29.29 90.61 31.42C91.59 33.55 92.93 35.4 94.65 36.96C96.36 38.52 98.38 39.75 100.7 40.63C103.02 41.51 105.53 41.95 108.22 41.95C109.3 41.95 110.26 41.88 111.12 41.73C111.98 41.58 113.11 41.32 114.53 40.92V27.57H123.78V47.38C122.65 47.63 121.69 47.85 120.88 48.04L120.87 48.05Z" fill="#F8951D"/>
<path d="M174.79 36.09C174.57 37.76 174.2 39.22 173.69 40.49C173.18 41.76 172.49 42.89 171.63 43.86C170.77 44.84 169.71 45.77 168.44 46.65C166.68 47.87 164.72 48.77 162.57 49.33C160.42 49.89 157.83 50.17 154.79 50.17C151.75 50.17 149.12 49.9 147.01 49.37C144.91 48.83 142.93 47.92 141.07 46.65C139.8 45.77 138.75 44.84 137.92 43.86C137.09 42.88 136.42 41.76 135.9 40.49C135.39 39.22 135.02 37.75 134.8 36.09C134.58 34.43 134.47 32.49 134.47 30.29V0.810009H143.64V30.82C143.64 38.01 147.45 41.61 155.09 41.61C158.61 41.61 161.29 40.69 163.12 38.86C164.95 37.02 165.87 34.35 165.87 30.82V0.810009H175.11V30.3C175.11 32.5 175 34.43 174.78 36.1L174.79 36.09Z" fill="#F8951D"/>
<path d="M212.02 49.23L200.94 29.86H196.32V49.23H187.07V0.810009H203.21C204.97 0.810009 206.51 0.870009 207.83 0.990009C209.15 1.11001 210.32 1.31001 211.35 1.58001C212.38 1.85001 213.28 2.22001 214.06 2.68001C214.84 3.15001 215.6 3.72001 216.34 4.40001C218.98 6.85001 220.3 10.34 220.3 14.89C220.3 18.61 219.42 21.64 217.66 23.99C217.22 24.58 216.77 25.09 216.3 25.53C215.84 25.97 215.31 26.36 214.72 26.7C214.13 27.04 213.47 27.35 212.74 27.62C212.01 27.89 211.12 28.17 210.1 28.46L222.13 49.22H212.01L212.02 49.23ZM210.77 15.11C210.77 12.76 210.12 11.1 208.83 10.12C207.53 9.14001 205.37 8.65001 202.33 8.65001H196.32V22H202.33C205.27 22 207.41 21.46 208.75 20.39C210.1 19.31 210.77 17.55 210.77 15.11Z" fill="#F8951D"/>
<path d="M334.46 7.11001H322.28V50.43H314.96V7.11001H302.71V0.830009H334.46V7.11001Z" fill="black"/>
<path d="M257.78 36.12C257.78 38.09 257.44 39.95 256.75 41.68C256.06 43.42 255.05 44.93 253.71 46.21C252.37 47.5 250.71 48.51 248.72 49.25C246.74 49.99 244.43 50.35 241.81 50.35C240.54 50.35 239.27 50.27 238.01 50.11C236.75 49.95 235.55 49.71 234.41 49.4C233.27 49.09 232.22 48.73 231.24 48.32C230.27 47.91 229.42 47.46 228.69 46.99V39.49C229.49 40.07 230.43 40.63 231.52 41.2C232.61 41.76 233.75 42.26 234.95 42.7C236.15 43.14 237.34 43.49 238.53 43.77C239.71 44.04 240.78 44.18 241.73 44.18C243.18 44.18 244.45 44 245.53 43.63C246.62 43.27 247.53 42.75 248.27 42.08C249 41.4 249.55 40.6 249.92 39.66C250.28 38.72 250.46 37.69 250.46 36.57C250.46 35.3 250.23 34.22 249.77 33.35C249.31 32.48 248.65 31.72 247.8 31.06C246.95 30.41 245.93 29.82 244.73 29.3C243.53 28.78 242.19 28.23 240.72 27.65C238.69 26.85 236.9 26.05 235.32 25.23C233.75 24.42 232.42 23.5 231.35 22.46C230.27 21.42 229.46 20.22 228.9 18.86C228.34 17.5 228.05 15.88 228.05 14.01C228.05 11.96 228.46 10.11 229.29 8.45001C230.11 6.79001 231.24 5.38001 232.66 4.22001C234.08 3.06001 235.75 2.16001 237.66 1.52001C239.57 0.880009 241.61 0.560009 243.79 0.560009C246.11 0.560009 248.21 0.770009 250.08 1.20001C251.96 1.62001 253.67 2.16001 255.21 2.81001V9.56001C254.49 9.21001 253.65 8.87001 252.7 8.55001C251.75 8.23001 250.75 7.93001 249.7 7.67001C248.65 7.41001 247.6 7.20001 246.55 7.03001C245.5 6.87001 244.5 6.79001 243.55 6.79001C242.22 6.79001 241.05 6.96001 240.03 7.30001C239 7.64001 238.14 8.11001 237.42 8.71001C236.71 9.31001 236.17 10.03 235.81 10.86C235.44 11.7 235.27 12.61 235.27 13.61C235.27 14.73 235.51 15.7 235.98 16.51C236.45 17.32 237.13 18.05 238 18.68C238.87 19.31 239.93 19.9 241.16 20.44C242.4 20.98 243.78 21.55 245.3 22.14C247.25 22.91 248.99 23.72 250.53 24.56C252.07 25.4 253.36 26.36 254.43 27.45C255.49 28.54 256.31 29.79 256.89 31.2C257.46 32.61 257.75 34.25 257.75 36.13L257.78 36.12Z" fill="black"/>
<path d="M305.54 49.87L286.5 1.38001H279.39L260.58 49.87H277.26V43.09L270.88 43.08L271.84 40.37L282.76 9.44001L295.15 43.11H288.86V49.89L305.54 49.87Z" fill="black"/>
<path d="M346.88 40.78V50.87C374.59 50.87 397.05 28.4 397.06 0.69001H386.97C386.97 22.83 369.02 40.78 346.88 40.78Z" fill="#F8951D"/>
<path d="M346.88 21.57V31.13C363.69 31.13 377.32 17.5 377.32 0.69001H367.76C367.76 12.22 358.41 21.57 346.88 21.57Z" fill="#F8951D"/>
<path d="M346.88 11.48C352.84 11.48 357.67 6.65001 357.67 0.69001H346.88V11.48Z" fill="black"/>
</g>
<defs>
<clipPath id="clip0_311_13060">
<rect width="397.06" height="50.88" fill="white"/>
</clipPath>
</defs>
</svg>
